<svg xmlns="http://www.w3.org/2000/svg" version="1.1" xmlns:xlink="http://www.w3.org/1999/xlink" xmlns:svgjs="http://svgjs.com/svgjs" width="512" height="512" x="0" y="0" viewBox="0 0 512 512" style="enable-background:new 0 0 512 512" xml:space="preserve" class=""><g><path fill="#87bee7" d="M198.414 164.434c-18.187 0-35.39-5.903-49.762-17.07-3.597-2.798-4.246-7.989-1.453-11.59 2.801-3.594 7.988-4.25 11.59-1.454 11.441 8.895 25.145 13.594 39.625 13.594a64.5 64.5 0 0 0 32.953-9.043c3.918-2.328 8.988-1.039 11.317 2.879s1.039 8.988-2.88 11.316a80.947 80.947 0 0 1-41.39 11.368zm0 0" data-original="#87bee7" class=""></path><path fill="#8bdfff" d="M386.664 357.59 241.54 211.164c-4.394-4.441-8.793-11.098-8.793-17.75l-8.797-95.402c0-8.875 2.2-15.532 8.797-22.188s13.191-8.87 19.79-8.87h2.194l94.551 8.87c6.602 0 13.196 4.442 17.594 8.875L512 231.13zm0 0" data-original="#8bdfff" class=""></path><path fill="#ffffff" d="M322.21 214.758a8.225 8.225 0 0 1-5.815-2.395 8.252 8.252 0 0 1-.055-11.675l41.523-41.895a8.248 8.248 0 0 1 11.676-.05 8.252 8.252 0 0 1 .055 11.675l-41.516 41.898a8.262 8.262 0 0 1-5.867 2.442zM370.363 263.344a8.26 8.26 0 0 1-5.863-14.074l41.523-41.895a8.261 8.261 0 0 1 11.73 11.633l-41.526 41.894a8.253 8.253 0 0 1-5.864 2.442zm0 0" data-original="#ffffff"></path><path fill="#87bee7" d="M112.922 85.133c-.195 0-.395-.004-.59-.02-4.55-.324-7.98-4.27-7.656-8.82C107.703 33.512 143.434 0 186.023 0c38.024 0 71.528 27.137 79.665 64.52.968 4.457-1.86 8.859-6.313 9.824-4.445.965-8.86-1.856-9.824-6.313-6.5-29.847-33.215-51.515-63.528-51.515-33.96 0-62.457 26.77-64.875 60.941a8.253 8.253 0 0 1-8.226 7.676zm0 0" data-original="#87bee7" class=""></path><path fill="#1072b5" d="M48.953 197.379c-25.863-21.14-37.09-56.863-27.512-91.246C34.313 59.93 81.812 33.03 127.605 46.02c45.79 12.984 72.446 60.91 59.575 107.113-9.52 34.187-38.239 62.12-71.063 66.722L65.93 396.04 23.309 421.16 0 377.348l21.059-11.84-11.18-23.621 21.71-14.184-11.175-23.617 21.816-14.574-10.851-24.793zm0 0" data-original="#1072b5" class=""></path><path fill="#ffffff" d="M118.39 77.691c11.493 3.243 18.176 15.2 14.946 26.735-3.23 11.539-15.137 18.246-26.633 15.008-11.492-3.243-18.176-15.2-14.945-26.739 3.234-11.535 15.144-18.25 26.633-15.004zm0 0" data-original="#ffffff"></path><g fill="#d94635"><path d="m174.875 362.379 16.02 8.762-16.02 8.757-8.762 16.02-8.761-16.02-16.02-8.757 16.02-8.762 8.761-16.012zM458.816 29.254l16.024 8.758-16.024 8.758-8.761 16.015-8.758-16.015-16.02-8.758 16.02-8.758 8.758-16.016zm0 0" fill="#d94635" data-original="#d94635"></path></g></g></svg>